<?xml version="1.0" encoding="utf-8"?>
<!-- Generator: Adobe Illustrator 24.0.2, SVG Export Plug-In . SVG Version: 6.00 Build 0)  -->
<svg version="1.1" id="Layer_1" xmlns="http://www.w3.org/2000/svg" xmlns:xlink="http://www.w3.org/1999/xlink" x="0px" y="0px"
	 viewBox="0 0 271 63" style="enable-background:new 0 0 271 63;" xml:space="preserve">
<style type="text/css">
	.st0{fill:#44BDA9;}
	.st1{fill:#FFFFFF;} 
</style>
<g>
	<path class="st0" d="M67.75,12.28v7.68H52.4v7.7h11.52v7.68H52.4v7.68h15.36v7.7H52.4h-7.7V12.28H67.75z"/>
	<path class="st0" d="M80.8,12.35c5.27,0,10.25,1.88,14.02,5.65c6.87,6.87,6.87,20.25,0,27.09c-3.77,3.74-8.75,5.63-14.02,5.63
		h-9.49V12.38h9.49V12.35z M80.84,43.02c3.15,0,6.06-0.88,8.3-3.12c2.24-2.24,3.12-5.2,3.12-8.37c0-3.15-0.88-6.11-3.15-8.37
		c-2.24-2.27-5.2-3.15-8.35-3.15h-1.76v23.01h1.81H80.84z"/>
	<path class="st0" d="M109.39,44.78c-0.86,1.96-1.74,3.89-2.62,5.84h-8.27l17.43-39.06l17.48,39.06h-8.3
		c-0.86-1.93-1.72-3.89-2.58-5.82h-13.09L109.39,44.78z M119.38,38.01l-3.39-7.99l-3.41,7.99H119.38z"/>
	<path class="st0" d="M144.04,12.28v15.38h11.52V12.28h7.7v38.44h-7.7V35.34h-11.52v15.38h-7.7V12.28H144.04z"/>
	<path class="st0" d="M219.2,43.09c2.12,0,3.88-1.76,3.88-3.89c0-1.65-0.64-2.7-1.96-3.17c-2.77-1.02-2.1-0.79-4.79-1.72
		c-2.84-0.98-5.46-2.91-7.22-5.32c-1.05-1.43-1.57-3.19-1.57-5.32c0-3.2,1.14-5.94,3.43-8.23c2.29-2.29,5.03-3.43,8.25-3.43
		c3.2,0,5.94,1.14,8.23,3.43c2.29,2.29,3.44,5.03,3.44,8.23h-7.75c0-2.1-1.77-3.86-3.86-3.86c-2.12,0-3.89,1.77-3.89,3.89
		c0,1.38,0.55,2.43,1.67,3.15c2.29,1.48,2.03,1.19,4.77,2c2.95,0.86,5.62,2.69,7.46,5.05c1.07,1.38,1.62,3.17,1.62,5.34
		c0,3.22-1.14,5.96-3.44,8.25c-2.29,2.29-5.03,3.43-8.23,3.43c-3.22,0-5.96-1.14-8.25-3.43c-2.29-2.29-3.43-5.03-3.43-8.25h7.77
		c0,2.15,1.74,3.89,3.89,3.89L219.2,43.09z"/>
	<path class="st0" d="M251.27,12.28h9.61v7.68h-9.61v30.76h-7.7V19.96h-9.61v-7.68h9.61H251.27z"/>
	<g>
		<polygon class="st0" points="40.88,51.44 40.88,12.28 33.18,12.28 33.18,33.53 10.12,11.56 10.12,39.14 17.82,39.14 17.82,29.45 
					"/>
		<rect x="10.12" y="43.32" class="st1" width="7.7" height="7.39"/>
	</g>
	<g>
		<path class="st1" d="M173.89,31.5c0-3.2,1.14-5.94,3.41-8.23c2.27-2.29,5.01-3.43,8.23-3.43c3.2,0,5.94,1.14,8.23,3.43
			c2.29,2.29,3.43,5.03,3.43,8.23c0,0.01,0,0.01,0,0.02h7.8c0-5.33-1.91-9.9-5.72-13.71c-3.82-3.82-8.39-5.72-13.74-5.72
			c-5.34,0-9.92,1.91-13.71,5.72c-3.79,3.81-5.69,8.38-5.7,13.71h7.77C173.89,31.52,173.89,31.51,173.89,31.5z"/>
	</g>
</g>
</svg>
